11 emisija po 35 minuta.

Tehnika snimanja: High definition.

Postprodukcija: High definition.

Redatelj: Stipe Bo┼╛i─ç

Snimatelji: Jo┼íko Boji─ç i Stipe Bo┼╛i─ç

Producent: Miro Mio─ì

Orginalna glazba: Matej Me┼ítrovi─ç

Monta┼╛a: Nik┼ía Ru┼íi─ç

Organizator: Jo┼íko Blaji─ç

Urednica Znanstveno-obrazovnog programa: Edda Dubravec

Sinkronizacija: Ante Dori─ç
Tekst ─ìitao: Miljenko Kokot
------------------------------------------------------
Detaljne informacije:

Video
ID                                       : 0
Format                                   : MPEG-4 Visual
Format profile                           : Advanced Simple@L5
Format settings, BVOP                    : 2
Format settings, QPel                    : No
Format settings, GMC                     : No warppoints
Format settings, Matrix                  : Default (H.263)
Muxing mode                              : Packed bitstream
Codec ID                                 : XVID
Codec ID/Hint                            : XviD
Duration                                 : 32mn 10s
Bit rate                                 : 1 386 Kbps
Width                                    : 704 pixels
Height                                   : 384 pixels
Display aspect ratio                     : 16:9
Frame rate                               : 25.000 fps
Color space                              : YUV
Chroma subsampling                       : 4:2:0
Bit depth                                : 8 bits
Scan type                                : Progressive
Compression mode                         : Lossy
Bits/(Pixel*Frame)                       : 0.205
Stream size                              : 319 MiB (91%)
Writing library                          : XviD 1.3.0.dev55

Audio
ID                                       : 1
Format                                   : MPEG Audio
Format version                           : Version 1
Format profile                           : Layer 3
Mode                                     : Joint stereo
Mode extension                           : MS Stereo
Codec ID                                 : 55
Codec ID/Hint                            : MP3
Duration                                 : 32mn 10s
Bit rate mode                            : Constant
Bit rate                                 : 128 Kbps
Channel(s)                               : 2 channels
Sampling rate                            : 48.0 KHz
Compression mode                         : Lossy
Stream size                              : 29.5 MiB (8%)
Alignment                                : Aligned on interleaves
Interleave, duration                     : 40 ms (1.00 video frame)
Interleave, preload duration             : 504 ms